<svg width="101" height="131" viewBox="0 0 101 131" fill="none" xmlns="http://www.w3.org/2000/svg">
<path fill-rule="evenodd" clip-rule="evenodd" d="M46.8525 108.055C46.1321 108.055 45.548 108.648 45.548 109.379C45.548 110.107 46.1321 110.703 46.8525 110.703H53.6659C54.3834 110.703 54.9674 110.107 54.9674 109.379C54.9674 108.648 54.3834 108.055 53.6629 108.055H46.8525V108.055ZM45.9927 87.8568C47.5345 88.3081 48.9546 88.5278 50.3363 88.5278C51.7209 88.5278 53.1381 88.3081 54.6799 87.8568C55.3707 87.6551 55.7709 86.9209 55.5693 86.2167C55.4715 85.8737 55.2491 85.5908 54.9378 85.4193C54.6383 85.2538 54.2855 85.2147 53.9594 85.314C51.3503 86.0783 49.3223 86.0783 46.7191 85.314C46.39 85.2117 46.0372 85.2508 45.7348 85.4223C45.4235 85.5938 45.1981 85.8737 45.1033 86.2167C45.0054 86.5538 45.044 86.9149 45.213 87.2248C45.3819 87.5348 45.6577 87.7605 45.9927 87.8568V87.8568ZM61.9438 106.971C62.3441 106.971 62.7147 106.791 62.9608 106.478C63.1802 106.201 63.281 105.855 63.2395 105.506C63.2039 105.154 63.0349 104.838 62.7651 104.618C59.3436 101.82 55.2877 100.399 50.7128 100.399C46.135 100.399 42.082 101.82 38.6576 104.615C38.3878 104.838 38.2158 105.154 38.1832 105.503C38.1417 105.855 38.2425 106.201 38.4619 106.478C38.6813 106.755 38.9956 106.929 39.3425 106.962C39.6834 106.998 40.0244 106.896 40.2912 106.679C43.2383 104.272 46.7428 103.05 50.7128 103.05C54.6798 103.05 58.1844 104.269 61.1285 106.679C61.3657 106.869 61.6473 106.971 61.9438 106.971ZM74.0436 63.2563C74.3905 63.2112 74.6958 63.0276 74.9063 62.7478C75.1198 62.4679 75.2088 62.1218 75.1673 61.7728C75.0783 61.1107 74.5091 60.6263 73.8508 60.6263L73.6996 60.6353C69.0388 61.2552 64.0964 59.6152 60.7846 56.3411C60.2746 55.8356 59.4474 55.8476 58.9463 56.3652C58.7002 56.618 58.5668 56.955 58.5728 57.3041C58.5757 57.6592 58.718 57.9902 58.9671 58.2369C62.2403 61.4779 67.0108 63.4128 71.7339 63.4128C72.5048 63.4128 73.2816 63.3586 74.0436 63.2563V63.2563ZM41.5276 56.3652C41.2815 56.1094 40.9554 55.968 40.5936 55.965C40.2497 55.965 39.9295 56.0974 39.6864 56.3411C36.3716 59.6212 31.4143 61.2672 26.7713 60.6353C26.0657 60.533 25.4075 61.0385 25.3067 61.7728C25.2148 62.495 25.7217 63.157 26.4304 63.2563C27.1923 63.3586 27.9721 63.4128 28.743 63.4128C33.4572 63.4128 38.2336 61.4749 41.5098 58.2369C42.0227 57.7254 42.0316 56.8858 41.5276 56.3652ZM71.2773 69.1033C71.2773 67.4482 69.1485 66.1 66.5335 66.1C63.9244 66.1 61.7986 67.4452 61.7986 69.1033C61.7986 70.7854 63.8769 72.1035 66.5365 72.1035C69.1485 72.1035 71.2773 70.7583 71.2773 69.1033V69.1033ZM33.9137 72.1035C36.5288 72.1035 38.6576 70.7583 38.6576 69.1033C38.6576 67.4482 36.5288 66.1 33.9137 66.1C31.3017 66.1 29.1788 67.4452 29.1788 69.1033C29.1788 70.7884 31.2542 72.1035 33.9137 72.1035Z" fill="#2E2E2E"/>
<path fill-rule="evenodd" clip-rule="evenodd" d="M98.2164 68.5586C97.4633 68.0139 96.5531 67.7431 95.6014 67.7882C96.6925 62.4258 97.4515 57.0754 97.8606 51.8724C98.9962 37.4041 95.2901 25.0241 87.1366 16.0747C78.4436 6.52938 65.0007 1.05559 50.2593 1.05559C46.5621 1.05559 43.2562 1.42272 41.3705 1.7748C40.5344 1.32943 39.8406 0.923188 39.1973 0.495878L39.0431 0.390555C38.711 0.167872 38.2485 0.258149 38.0172 0.601201L37.027 2.07572C36.9113 2.24424 36.8669 2.45489 36.9113 2.65349C36.9499 2.85511 37.0685 3.03266 37.2375 3.14099L37.3916 3.2433C39.9474 4.94653 42.7373 6.22545 45.0411 6.75206C47.5849 7.33585 48.8421 8.57566 49.3669 9.26477L49.4647 9.39116C49.6871 9.67703 50.0577 9.75828 50.3957 9.59578L51.973 8.75922C52.1627 8.65691 52.2991 8.47635 52.3495 8.26571C52.3999 8.05506 52.3584 7.82937 52.2309 7.6458L52.1064 7.46826C51.6617 6.83933 50.4342 5.36782 48.0949 4.32061C48.9073 4.28751 49.7404 4.26343 50.2593 4.26343C64.135 4.26343 76.7269 9.36106 84.8121 18.2503C92.4586 26.6581 95.7852 37.8825 94.706 51.6167C94.2405 57.5328 93.2977 63.6837 91.9071 69.9158L91.7589 70.7313C91.7055 71.0081 91.7767 71.291 91.9546 71.5077C92.1295 71.7243 92.3993 71.8537 92.675 71.8537H93.7454C93.9529 71.8537 94.1456 71.7845 94.3176 71.6521L94.4866 71.5197C95.1389 71.0141 95.9512 70.8637 96.3871 71.1796C97.321 71.8477 97.3151 74.2581 96.3752 77.174C96.3752 77.174 94.1753 84.0652 93.4637 86.2017C92.3963 89.4035 90.4958 91.5762 88.3285 92.0968L88.37 91.9915L88.4323 91.844C88.5538 91.5611 88.6754 91.2723 88.797 90.9713C88.8829 90.7396 88.877 90.4778 88.7821 90.2491C88.6843 90.0234 88.4975 89.8369 88.2662 89.7436L87.0506 89.2621C86.5763 89.0815 86.0366 89.3223 85.8499 89.7917C80.602 103.168 74.0377 113.285 65.1846 121.629C60.4111 126.131 55.7651 127.055 50.2563 127.055C44.7475 127.055 40.1016 126.131 35.3281 121.626C26.4749 113.285 19.9106 103.168 14.6628 89.7917C14.473 89.3102 13.9453 89.0785 13.4561 89.2621L12.2464 89.7436C12.0151 89.8339 11.8283 90.0204 11.7305 90.2551C11.6356 90.4808 11.6327 90.7456 11.7246 90.9774C11.861 91.3294 12.0033 91.6635 12.1456 92.0005C12.1604 92.0306 12.1723 92.0547 12.1812 92.0848C9.98715 91.5611 8.13112 89.4306 7.0519 86.1987C6.34329 84.0742 4.14334 77.171 4.14334 77.171C3.20051 74.2551 3.19458 71.8447 4.12852 71.1766C4.58215 70.8516 5.36488 71.0081 6.09721 71.5678L6.29585 71.7002C6.46485 71.8026 6.64868 71.8627 6.85622 71.8417C7.30985 71.7935 8.61736 71.6551 8.67963 71.6401C9.77071 71.3572 10.841 70.4063 11.6119 69.013C12.8364 66.8042 13.7111 63.5964 14.725 59.886C16.7412 52.4532 19.2613 43.2059 25.7782 39.0321C33.0926 34.3527 39.4107 35.1802 46.7222 36.1402C53.7727 37.061 61.7631 38.1052 72.1372 34.437L72.2262 34.4972C73.0148 40.2237 76.5727 47.7468 84.2221 51.7912C84.8625 52.1222 85.6482 51.8694 85.9773 51.2285C86.1404 50.9155 86.1701 50.5574 86.0663 50.2174C85.9625 49.8803 85.7342 49.6065 85.4229 49.444C78.3872 45.7216 75.2919 38.8064 74.7434 33.5763C74.7019 33.1791 74.4765 32.815 74.1445 32.5983L73 31.8581C72.6531 31.6384 72.238 31.5872 71.8585 31.7317C61.7571 35.4451 53.9269 34.4189 47.0216 33.5101C39.5442 32.5412 32.4818 31.6233 24.3847 36.7962C17.0199 41.5117 14.3515 51.3067 12.199 59.215C11.2383 62.7418 10.4082 65.7901 9.3408 67.713C8.98205 68.363 8.62329 68.7061 8.3861 68.8866C7.11416 63.0036 6.24842 57.1958 5.80961 51.6167C3.61559 23.691 20.136 12.4305 30.181 8.20552L30.2374 8.18145C31.4648 8.72311 32.6152 9.12033 33.6588 9.35505C36.1998 9.93884 37.4539 11.1786 37.9817 11.8708L38.0765 11.9911C38.29 12.277 38.6784 12.3643 39.0105 12.2018L40.5819 11.3652C40.7746 11.2659 40.911 11.0854 40.9643 10.8717C41.0177 10.658 40.9762 10.4293 40.8457 10.2488L40.7212 10.0743C40.0897 9.18051 38.21 7.00785 34.3764 6.12915C32.4492 5.68981 30.0535 4.58542 27.8121 3.09886L27.6638 2.99956C27.3318 2.76785 26.8663 2.85812 26.6291 3.20418L25.6418 4.67871C25.5291 4.84722 25.4817 5.05486 25.5232 5.25949C25.5617 5.4581 25.6803 5.63564 25.8493 5.74999L26.0065 5.8493C26.2377 5.99976 26.4779 6.15022 26.7121 6.29165C9.7796 14.4497 1.02131 31.0426 2.65793 51.8754C3.06412 57.0333 3.82017 62.3837 4.91421 67.7882C3.96841 67.7371 3.0493 68.0169 2.30214 68.5556C1.00649 69.4854 -0.870291 71.9711 1.13694 78.1701C1.13694 78.1701 3.33689 85.0612 4.0544 87.2249C6.06756 93.2734 10.1117 95.431 13.2248 95.431C13.3434 95.431 13.4531 95.422 13.5806 95.41C18.7188 107.143 24.945 116.225 33.1726 123.98C39.0283 129.505 44.8424 130.269 50.2563 130.269C55.6702 130.269 61.4873 129.505 67.343 123.98C75.5676 116.225 81.7968 107.14 86.938 95.41C87.0536 95.422 87.1752 95.431 87.2908 95.431C90.4039 95.431 94.451 93.2734 96.4612 87.2218C97.241 84.8776 99.3757 78.1761 99.3757 78.1761C101.383 71.9711 99.5091 69.4854 98.2164 68.5586" fill="#2E2E2E"/>
</svg>
