<svg width="101" height="131" viewBox="0 0 101 131" fill="none" xmlns="http://www.w3.org/2000/svg">
<path fill-rule="evenodd" clip-rule="evenodd" d="M45.9937 87.8564C47.5355 88.3078 48.9557 88.5274 50.3374 88.5274C51.7191 88.5274 53.1393 88.3078 54.6811 87.8564C55.3719 87.6548 55.7722 86.9205 55.5705 86.2164C55.4727 85.8733 55.2503 85.5905 54.939 85.4189C54.6425 85.2534 54.2926 85.2143 53.9606 85.3136C51.3573 86.0749 49.3263 86.0779 46.7202 85.3136C46.391 85.2113 46.0382 85.2534 45.7328 85.4219C45.4245 85.5935 45.1991 85.8733 45.1013 86.2164C45.0064 86.5594 45.045 86.9145 45.211 87.2245C45.38 87.5344 45.6557 87.7571 45.9937 87.8564" fill="#2E2E2E"/>
<path fill-rule="evenodd" clip-rule="evenodd" d="M98.2185 68.5583C97.5128 68.0468 96.6826 67.785 95.7872 67.785L95.6034 67.788C96.6945 62.4255 97.4535 57.0722 97.8627 51.8722C98.9982 37.4039 95.292 25.024 87.1384 16.0746C78.4452 6.52938 65.0021 1.05561 50.2574 1.05561C46.5631 1.05561 43.2601 1.42274 41.3714 1.77482C40.5294 1.32343 39.8356 0.91719 39.1981 0.4959L39.0439 0.393587C38.7089 0.164886 38.2523 0.258172 38.0181 0.601223L37.0278 2.07574C36.9151 2.24124 36.8706 2.45189 36.9092 2.65652C36.9507 2.85813 37.0693 3.03267 37.2353 3.141L37.3925 3.24331C39.9482 4.94653 42.7383 6.22545 45.048 6.75206C47.583 7.33284 48.8431 8.57564 49.3679 9.26475L49.4628 9.38512C49.6822 9.67401 50.0647 9.76127 50.3997 9.59577L51.9741 8.7592C52.1639 8.65689 52.3002 8.47634 52.3536 8.26268C52.401 8.04602 52.3595 7.82334 52.232 7.6458L52.1075 7.46825C51.6628 6.83933 50.4353 5.36782 48.0959 4.32061C48.9054 4.28751 49.7415 4.26344 50.2603 4.26344C64.1363 4.26344 76.7285 9.36105 84.8139 18.2503C92.4605 26.658 95.7872 37.8824 94.7079 51.6164C94.2425 57.5326 93.2996 63.6834 91.909 69.9155L91.7608 70.731C91.7074 71.0078 91.7786 71.2907 91.9565 71.5074C92.1314 71.724 92.4012 71.8534 92.677 71.8534H93.7473C93.9549 71.8534 94.1476 71.7842 94.3195 71.6518L94.4885 71.5194C95.1408 71.0138 95.9562 70.8634 96.3891 71.1794C97.323 71.8474 97.3171 74.2578 96.3772 77.1737L95.3009 80.526C94.7465 82.2653 94.1743 84.0648 93.4627 86.2014C92.4012 89.4032 90.4977 91.5758 88.3303 92.0964L88.3718 91.9911L88.4341 91.8436C88.5557 91.5608 88.6772 91.2719 88.7988 90.971C88.8848 90.7393 88.8789 90.4774 88.784 90.2487C88.6861 90.0231 88.4993 89.8365 88.2681 89.7432L87.0524 89.2617C86.5781 89.0812 86.0384 89.3219 85.8516 89.7913C80.6037 103.167 74.0393 113.284 65.1859 121.629C60.4123 126.131 55.7663 127.054 50.2574 127.054C44.7485 127.054 40.1024 126.131 35.3259 121.626C26.4755 113.281 19.9081 103.164 14.6602 89.7913C14.4734 89.3129 13.9456 89.0842 13.4534 89.2617L12.2437 89.7432C12.0154 89.8365 11.8286 90.0231 11.7308 90.2487C11.6329 90.4774 11.63 90.7423 11.7219 90.977C11.8494 91.305 11.9828 91.621 12.1192 91.9369L12.1785 92.0814C9.9874 91.5578 8.12837 89.4302 7.05209 86.2014C6.30493 83.9565 5.69118 82.0185 5.199 80.4628L4.14348 77.1677C3.20062 74.2548 3.19469 71.8444 4.12865 71.1763C4.58229 70.8544 5.368 71.0078 6.09738 71.5675L6.299 71.6999C6.46503 71.8023 6.67258 71.8624 6.85048 71.8414C7.30708 71.7872 8.5998 71.6608 8.67985 71.6398C9.76799 71.3689 10.8383 70.406 11.6122 69.0127C12.8397 66.804 13.7114 63.5991 14.7254 59.8828C16.7416 52.45 19.2618 43.2027 25.7787 39.0349C33.0933 34.3556 39.4086 35.1831 46.7232 36.1401C53.7768 37.0609 61.7614 38.1051 72.1387 34.4368L72.2277 34.497C73.0164 40.2236 76.5743 47.7466 84.2239 51.791C84.8643 52.116 85.6471 51.8662 85.9791 51.2283C86.1422 50.9153 86.1719 50.5572 86.0681 50.2172C85.9643 49.8801 85.736 49.6063 85.4247 49.4438C78.3889 45.7214 75.2934 38.8062 74.7449 33.5762C74.7034 33.179 74.4781 32.8149 74.146 32.5982L73.0015 31.8579C72.6546 31.6383 72.2425 31.5871 71.86 31.7316C61.7614 35.4449 53.931 34.4188 47.0226 33.51C39.545 32.538 32.4795 31.6232 24.3882 36.7961C17.0173 41.5115 14.3518 51.3065 12.2111 59.1786C11.2475 62.7235 10.4144 65.7838 9.34104 67.7127C8.98228 68.3597 8.62352 68.7058 8.38632 68.8833C7.11732 63.0154 6.25156 57.2076 5.80978 51.6164C3.61571 23.6909 20.1335 12.4304 30.1817 8.20551L30.238 8.17843C31.4655 8.72009 32.6159 9.1173 33.6625 9.35804C36.1976 9.93581 37.4577 11.1786 37.9825 11.8707L38.0774 11.9911C38.2938 12.277 38.6822 12.3642 39.0113 12.2017L40.5887 11.3652C40.7784 11.2599 40.9148 11.0793 40.9652 10.8687C41.0156 10.658 40.9741 10.4323 40.8466 10.2488L40.7221 10.0712C40.0876 9.17749 38.2019 7.00483 34.3771 6.12915C32.441 5.6868 30.0483 4.58241 27.8127 3.09887L27.6585 2.99656C27.3175 2.77087 26.8669 2.85813 26.6326 3.2072L25.6423 4.68172C25.5297 4.84723 25.4852 5.05486 25.5237 5.2625C25.5653 5.4611 25.6839 5.63865 25.8499 5.74999L26.007 5.84929C26.2353 5.99975 26.4725 6.15022 26.7127 6.29165C9.77985 14.4496 1.02138 31.0424 2.65803 51.8752C3.06127 57.024 3.8203 62.3774 4.91733 67.788C3.97447 67.7579 3.05534 68.0137 2.30224 68.5553C1.00656 69.4852 -0.864329 71.9708 1.13701 78.1698L2.18364 81.4468C2.74698 83.2192 3.33108 85.0488 4.05156 87.2245C6.06773 93.273 10.1119 95.4306 13.2281 95.4306C13.3408 95.4306 13.4564 95.4216 13.578 95.4096C18.7192 107.139 24.9456 116.221 33.1733 123.979C39.0261 129.504 44.8434 130.268 50.2574 130.268C55.6714 130.268 61.4886 129.504 67.3444 123.979C75.5722 116.221 81.8015 107.139 86.9398 95.4096C87.0584 95.4216 87.177 95.4306 87.2926 95.4306C90.4058 95.4306 94.453 93.273 96.4632 87.2215C97.243 84.8773 97.8686 82.9153 98.3934 81.2572L99.3778 78.1758C101.385 71.9708 99.5141 69.4852 98.2185 68.5583" fill="#2E2E2E"/>
<path fill-rule="evenodd" clip-rule="evenodd" d="M71.2788 69.103C71.2788 67.4479 69.15 66.0998 66.5349 66.0998C63.9258 66.0998 61.7999 67.4449 61.7999 69.103C61.7999 70.7851 63.8783 72.1031 66.5379 72.1031C69.15 72.1031 71.2788 70.758 71.2788 69.103V69.103ZM33.9145 72.1031C36.5296 72.1031 38.6584 70.758 38.6584 69.103C38.6584 67.4479 36.5296 66.0998 33.9145 66.0998C31.2994 66.0998 29.1736 67.4449 29.1736 69.103C29.1736 70.7881 31.2579 72.1031 33.9145 72.1031ZM39.9245 102.192H60.5961C59.3923 105.123 56.5104 109.73 50.2603 109.73C44.0042 109.73 41.1253 105.126 39.9245 102.192ZM50.2603 112.375C57.8476 112.375 62.1705 106.619 63.6856 101.232C63.7983 100.835 63.7182 100.402 63.4721 100.071C63.226 99.7398 62.8376 99.5442 62.4344 99.5442H38.0892C37.68 99.5442 37.2886 99.7398 37.0455 100.071C36.8024 100.402 36.7223 100.835 36.832 101.232C38.3471 106.619 42.673 112.375 50.2603 112.375V112.375ZM73.9799 61.9711C74.1104 61.6431 74.1074 61.285 73.974 60.96C73.8406 60.632 73.5885 60.3792 73.2624 60.2468C71.7829 59.639 69.4169 58.9168 66.5527 58.9168C63.6767 58.9168 61.3047 59.648 59.8163 60.2619C59.1492 60.5327 58.826 61.3061 59.0959 61.9832C59.2975 62.4857 59.7689 62.8107 60.3026 62.8107C60.4775 62.8107 60.6436 62.7776 60.7918 62.7114C62.0727 62.1878 64.1096 61.5619 66.5527 61.5619C69.0047 61.5619 71.0239 62.1818 72.2869 62.6994C72.9451 62.9702 73.7101 62.6392 73.9799 61.9681V61.9711ZM39.6606 62.7114C39.8148 62.7776 39.9808 62.8107 40.1528 62.8107C40.6865 62.8107 41.1609 62.4857 41.3595 61.9832C41.49 61.6552 41.487 61.2971 41.3506 60.9721C41.2142 60.6471 40.9652 60.3943 40.639 60.2589C39.1536 59.648 36.7757 58.9138 33.9027 58.9138C31.0415 58.9138 28.6754 59.636 27.193 60.2468C26.8668 60.3792 26.6178 60.632 26.4814 60.957C26.348 61.282 26.342 61.6431 26.4754 61.9681C26.7334 62.6362 27.4954 62.9672 28.1714 62.6994C29.4374 62.1818 31.4625 61.5619 33.9027 61.5619C36.3517 61.5619 38.3827 62.1878 39.6606 62.7114" fill="#2E2E2E"/>
</svg>
