<svg width="100" height="130" viewBox="0 0 100 130" fill="none" xmlns="http://www.w3.org/2000/svg">
<path fill-rule="evenodd" clip-rule="evenodd" d="M74.0983 60.0411C74.0983 59.3129 73.5142 58.7171 72.7996 58.7171H59.766C59.0455 58.7171 58.4614 59.3129 58.4614 60.0411C58.4614 60.7724 59.0455 61.3652 59.766 61.3652H72.7996C73.5142 61.3652 74.0983 60.7724 74.0983 60.0411ZM61.5419 68.8341C61.5419 70.5193 63.6203 71.8344 66.2769 71.8344C68.8949 71.8344 71.0207 70.4892 71.0207 68.8341C71.0207 67.1791 68.8949 65.8279 66.2769 65.8279C63.6678 65.8279 61.5419 67.1791 61.5419 68.8372V68.8341ZM41.4785 60.0411C41.4785 59.3129 40.8944 58.7171 40.174 58.7171H27.1462C26.4287 58.7171 25.8417 59.3129 25.8417 60.0411C25.8417 60.7724 26.4287 61.3652 27.1462 61.3652H40.1799C40.8974 61.3652 41.4815 60.7724 41.4815 60.0411H41.4785ZM28.9192 68.8341C28.9192 70.5193 30.9976 71.8344 33.6571 71.8344C36.2722 71.8344 38.401 70.4892 38.401 68.8341C38.401 67.1791 36.2722 65.8279 33.6571 65.8279C31.048 65.8279 28.9192 67.1791 28.9192 68.8372V68.8341ZM60.9875 96.0949H39.0177C38.2972 96.0949 37.7131 96.6877 37.7131 97.4189C37.7131 98.1502 38.2972 98.743 39.0177 98.743H60.9875C61.708 98.743 62.2921 98.1502 62.2921 97.4189C62.2921 96.6877 61.708 96.0949 60.9875 96.0949ZM60.9875 102.748H39.0177C38.2972 102.748 37.7131 103.344 37.7131 104.072C37.7131 104.804 38.2972 105.396 39.0177 105.396H60.9875C61.708 105.396 62.2921 104.804 62.2921 104.072C62.2921 103.344 61.708 102.748 60.9875 102.748ZM60.9875 109.408H39.0177C38.2972 109.408 37.7131 110.001 37.7131 110.732C37.7131 111.46 38.2972 112.056 39.0177 112.056H60.9875C61.708 112.056 62.2921 111.46 62.2921 110.732C62.2921 110.001 61.708 109.408 60.9875 109.408Z" fill="#2E2E2E"/>
<path fill-rule="evenodd" clip-rule="evenodd" d="M12.9029 91.9872C12.4878 91.9421 12.1409 91.8789 11.8652 91.8067L11.7881 91.7826C10.5339 91.4336 8.2213 90.2148 6.79815 85.9296C6.05693 83.7028 5.45506 81.804 4.91841 80.1308L3.88959 76.8989C2.94972 73.9829 2.94083 71.5725 3.87477 70.9045C4.02894 70.7932 4.23352 70.739 4.46182 70.739C4.8769 70.739 5.36611 70.9165 5.76933 71.2445C6.05396 71.4702 6.12512 71.6418 6.14291 71.6989C7.56309 77.2359 9.78973 84.0669 12.0994 89.9801L12.9088 91.9842L12.9029 91.9872ZM50.0026 126.786C44.4908 126.786 39.8448 125.862 35.0714 121.36C27.3804 114.108 21.5129 105.64 16.6119 94.7226C18.1774 94.6474 20.3329 94.2833 23.3482 92.5199C26.1115 90.9069 28.6109 89.291 31.0273 87.7231L31.1725 87.6329C38.1578 83.104 43.6725 79.529 49.9996 79.526C56.3297 79.529 61.8473 83.104 68.8445 87.6389C71.2964 89.2278 73.8314 90.8708 76.654 92.5199C79.6722 94.2833 81.8277 94.6474 83.3902 94.7226C78.4893 105.643 72.6217 114.111 64.9338 121.36C60.1603 125.862 55.5113 126.786 50.0026 126.786ZM96.1185 76.9049L95.0838 80.1308C94.5501 81.807 93.9482 83.7028 93.207 85.9296C91.7838 90.2148 89.4712 91.4366 88.2052 91.7886L88.1489 91.8067C87.8702 91.8819 87.5174 91.9421 87.0993 91.9872L87.9058 89.9831C90.2184 84.0699 92.445 77.242 93.8593 71.717C93.9037 71.5756 94.0312 71.4161 94.2388 71.2475C94.6301 70.9316 95.1164 70.742 95.5433 70.742C95.7746 70.742 95.9792 70.8022 96.1304 70.9105C97.0643 71.5786 97.0554 73.986 96.1185 76.9049ZM97.9567 68.2895C97.2155 67.7478 96.2875 67.483 95.3447 67.5191C96.4328 62.1596 97.1948 56.8062 97.6009 51.6002C98.7395 37.1348 95.0334 24.7548 86.8799 15.8053C78.1868 6.25995 64.744 0.789149 50.0026 0.789149C46.3053 0.789149 42.9995 1.15628 41.1138 1.50535C40.2777 1.05998 39.5839 0.650723 38.9406 0.22642L38.7864 0.124106C38.4513 -0.101587 37.9888 -0.0113098 37.7576 0.328735L36.7703 1.80627C36.6546 1.97178 36.6131 2.18243 36.6517 2.38405C36.6902 2.58567 36.8088 2.76622 36.9778 2.87455L37.1349 2.97687C39.6907 4.6801 42.4836 5.95602 44.7873 6.48564C47.3282 7.06342 48.5824 8.30624 49.1101 8.99535L49.208 9.12174C49.4244 9.40461 49.8069 9.49188 50.139 9.32637L51.7163 8.4898C51.906 8.38749 52.0424 8.20693 52.0928 7.99628C52.1432 7.78564 52.1017 7.55994 51.9742 7.37638L51.8497 7.20184C51.405 6.5699 50.1775 5.10139 47.8382 4.04816C48.6506 4.01807 49.4867 3.99399 50.0026 3.99399C63.8783 3.99399 76.4702 9.09165 84.5554 17.981C92.2019 26.3858 95.5315 37.6132 94.4493 51.3534C93.969 57.4261 93.0291 63.577 91.6563 69.6316C90.2717 75.7193 87.0875 85.3519 84.2293 92.0986H84.1196C82.2814 92.0986 80.5706 91.7585 77.9526 90.2238C75.1538 88.5898 72.6544 86.9708 70.2291 85.397C63.1845 80.832 57.1005 76.8869 49.9907 76.8778C42.9105 76.8839 36.8207 80.829 29.7701 85.4C27.3478 86.9708 24.8484 88.5898 22.0496 90.2268C19.4345 91.7525 17.6734 92.0986 15.8826 92.0986H15.7788C13.2112 86.047 10.3946 77.7204 8.72533 71.2746C9.70968 70.9135 10.6614 69.9987 11.3582 68.7469C12.5856 66.5321 13.4573 63.3302 14.4713 59.6168C16.4874 52.184 19.0076 42.9366 25.5244 38.7628C32.8388 34.0834 39.157 34.9109 46.4714 35.8709C53.5189 36.7917 61.5034 37.8359 71.8835 34.1677L71.9724 34.2278C72.7641 39.9544 76.3219 47.4775 83.9684 51.522C84.6088 51.85 85.3915 51.5972 85.7236 50.9592C85.8867 50.6493 85.9163 50.2882 85.8125 49.9481C85.7088 49.6111 85.4805 49.3373 85.1692 49.1748C78.1335 45.4523 75.0411 38.5341 74.4896 33.307C74.4481 32.9098 74.2228 32.5457 73.8907 32.329L72.7463 31.5918C72.4023 31.3691 71.9873 31.3209 71.6048 31.4624C61.5034 35.1758 53.6761 34.1466 46.7679 33.2378C39.2904 32.2718 32.2251 31.351 24.1309 36.5299C16.7632 41.2424 14.0977 51.0405 11.9452 58.9428C10.9846 62.4726 10.1544 65.521 9.08705 67.4439C8.72533 68.0939 8.36955 68.4369 8.13235 68.6175C6.86042 62.7434 5.99467 56.9356 5.5529 51.3504C3.35888 23.4247 19.8822 12.1641 29.9243 7.93309L29.9836 7.91203C31.2111 8.45369 32.3615 8.8479 33.4051 9.08563C35.946 9.66942 37.2031 10.9092 37.7279 11.6014L37.8228 11.7217C38.0392 12.0076 38.4247 12.0949 38.7567 11.9324L40.3281 11.0958C40.5208 10.9965 40.6572 10.8159 40.7106 10.6023C40.764 10.3886 40.7225 10.1599 40.592 9.98238L40.4675 9.80183C39.8359 8.91109 37.9562 6.73842 34.1226 5.85972C32.1954 5.42037 29.7998 4.31598 27.5583 2.82941L27.4101 2.73011C27.0751 2.50141 26.6125 2.58868 26.3753 2.93474L25.388 4.40927C25.2754 4.57478 25.2309 4.78843 25.2694 4.99005C25.308 5.18866 25.4266 5.36621 25.5956 5.47755L25.7527 5.57986C25.984 5.73333 26.2241 5.88079 26.4584 6.02222C9.52289 14.1803 0.764596 30.7732 2.40122 51.6032C2.80444 56.7611 3.56345 62.1145 4.6575 67.5221C3.72059 67.486 2.79555 67.7478 2.04543 68.2865C0.749772 69.2193 -1.12701 71.7019 0.880227 77.901C0.880227 77.901 3.02088 84.6176 3.79768 86.9588C5.81084 93.0074 9.85496 95.162 12.9681 95.162C13.0867 95.162 13.1994 95.153 13.3239 95.1409C18.468 106.877 24.6942 115.962 32.9159 123.717C38.7716 129.236 44.5887 130 50.0026 130C55.4135 130 61.2336 129.236 67.0892 123.711C75.3079 115.959 81.5372 106.877 86.6813 95.1409C86.7999 95.153 86.9155 95.162 87.037 95.162C90.1502 95.162 94.1943 93.0074 96.2045 86.9558C96.9754 84.6387 99.119 77.907 99.119 77.907C101.126 71.7019 99.2524 69.2193 97.9597 68.2895H97.9567Z" fill="#2E2E2E"/>
</svg>
