<svg width="101" height="131" viewBox="0 0 101 131" fill="none" xmlns="http://www.w3.org/2000/svg">
<path fill-rule="evenodd" clip-rule="evenodd" d="M50.1891 88.489C51.5678 88.489 52.9879 88.2693 54.5266 87.8179C55.2204 87.6163 55.6177 86.8791 55.419 86.1779C55.3242 85.8349 55.0988 85.552 54.7905 85.3805C54.494 85.212 54.1412 85.1759 53.8121 85.2752C51.2031 86.0365 49.1722 86.0365 46.5661 85.2752C46.24 85.1729 45.8902 85.212 45.5818 85.3835C45.2705 85.555 45.0482 85.8379 44.9503 86.1809C44.7517 86.8791 45.1519 87.6163 45.8457 87.8179C47.3844 88.2693 48.8046 88.489 50.1862 88.489" fill="#2E2E2E"/>
<path fill-rule="evenodd" clip-rule="evenodd" d="M98.0648 68.5202C97.3118 67.9755 96.3956 67.7047 95.4499 67.7498C96.5409 62.3875 97.2999 57.0372 97.7091 51.8344C98.8446 37.3663 95.1386 24.9867 86.9854 16.0374C78.2925 6.49237 64.8501 1.01871 50.1091 1.01871C46.412 1.01871 43.1062 1.38583 41.2206 1.7379C40.3846 1.29254 39.6908 0.886308 39.0474 0.459007L38.8933 0.353687C38.5582 0.131009 38.0987 0.221284 37.8674 0.564328L36.8772 2.03882C36.7616 2.20733 36.7171 2.41797 36.7616 2.61657C36.8001 2.81819 36.9187 2.99573 37.0877 3.10406L37.2419 3.20637C39.7975 4.90955 42.5874 6.18845 44.8911 6.71505C47.4349 7.29883 48.6919 8.5386 49.2167 9.2277L49.3146 9.35408C49.5369 9.63995 49.9075 9.7212 50.2455 9.5587L51.8228 8.72216C52.0125 8.61985 52.1489 8.4393 52.1993 8.22866C52.2497 8.01801 52.2082 7.79233 52.0807 7.60877L51.9562 7.43123C51.5115 6.80231 50.284 5.33084 47.9448 4.28365C48.7572 4.25055 49.5903 4.22647 50.1091 4.22647C63.9844 4.22647 76.5759 9.32399 84.661 18.213C92.3072 26.6206 95.6337 37.8448 94.5545 51.5786C94.089 57.4946 93.1462 63.6453 91.7557 69.8773L91.6075 70.6928C91.5541 70.9696 91.6253 71.2525 91.8032 71.4691C91.9781 71.6858 92.2479 71.8152 92.5236 71.8152H93.5939C93.8014 71.8152 93.9942 71.746 94.1661 71.6136L94.3351 71.4812C94.9874 70.9756 95.7968 70.8252 96.2355 71.1411C97.1695 71.8092 97.1635 74.2195 96.2237 77.1354L95.1475 80.4876C94.593 82.2269 94.0208 84.0264 93.3093 86.1629C92.2479 89.3646 90.3445 91.5372 88.1772 92.0578L88.2187 91.9525L88.281 91.805C88.4025 91.5222 88.5241 91.2333 88.6457 90.9324C88.7316 90.7007 88.7257 90.4389 88.6308 90.2102C88.533 89.9845 88.3462 89.7979 88.1149 89.7046L86.8994 89.2232C86.425 89.0426 85.8854 89.2834 85.6986 89.7528C80.4509 103.128 73.8869 113.245 65.0339 121.59C60.2606 126.091 55.6148 127.015 50.1062 127.015C44.5975 127.015 39.9517 126.091 35.1754 121.587C26.3255 113.245 19.7643 103.128 14.5107 89.7558C14.3239 89.2713 13.7903 89.0396 13.307 89.2232L12.0944 89.7046C11.8661 89.7979 11.6793 89.9845 11.5815 90.2102C11.4866 90.4389 11.4836 90.7007 11.5726 90.9384C11.706 91.2844 11.8483 91.6124 11.9877 91.9404L12.0351 92.0458C9.84114 91.5222 7.98221 89.3917 6.90598 86.1599C6.19443 84.0354 5.62519 82.2389 5.07373 80.5026L3.99454 77.1324C3.05174 74.2165 3.04581 71.8062 3.97972 71.1381C4.43037 70.8161 5.21604 70.9696 5.94835 71.5293L6.14699 71.6617C6.31895 71.767 6.5087 71.8152 6.70734 71.8032C7.16392 71.7701 8.4121 71.6316 8.5307 71.6015C9.62174 71.3247 10.692 70.3678 11.4629 68.9745C12.6874 66.7658 13.562 63.5581 14.5759 59.8478C16.592 52.4151 19.1121 43.168 25.6287 38.9943C32.9429 34.3151 39.2609 35.1426 46.5721 36.1025C53.6224 37.0233 61.6066 38.0675 71.9864 34.3993L72.0754 34.4595C72.864 40.1859 76.4218 47.7088 84.071 51.7531C84.7114 52.0781 85.4941 51.8284 85.8261 51.1904C85.9892 50.8775 86.0188 50.5194 85.9151 50.1793C85.8113 49.8423 85.583 49.5685 85.2717 49.406C78.2362 45.6837 75.141 38.7686 74.5925 33.5387C74.551 33.1415 74.3256 32.7774 73.9936 32.5607L72.8492 31.8205C72.5053 31.6008 72.0902 31.5496 71.7077 31.6941C61.6096 35.4074 53.7795 34.3813 46.8716 33.4725C39.3973 32.5035 32.3321 31.5827 24.2353 36.7585C16.8707 41.4738 14.2024 51.2687 12.0499 59.1767C11.0893 62.7035 10.2592 65.7517 9.19185 67.6746C8.83311 68.3246 8.47436 68.6676 8.23718 68.8482C6.96528 62.9653 6.09956 57.1576 5.66077 51.5786C3.46681 23.6536 19.9867 12.3933 30.0315 8.16847L30.0878 8.1444C31.3152 8.68605 32.4656 9.08326 33.5092 9.31797C36.05 9.90175 37.3041 11.1415 37.8319 11.8336L37.9267 11.954C38.1402 12.2399 38.5286 12.3241 38.8606 12.1646L40.432 11.3281C40.6247 11.2288 40.7611 11.0482 40.8145 10.8346C40.8678 10.6209 40.8263 10.3922 40.6959 10.2117L40.5713 10.0372C39.9398 9.14344 38.0601 6.97083 34.2267 6.09215C32.2995 5.65282 29.904 4.54845 27.6626 3.06193L27.5143 2.96263C27.1793 2.73092 26.7168 2.8212 26.4796 3.16725L25.4923 4.64174C25.3797 4.81025 25.3322 5.01788 25.3738 5.22251C25.4123 5.42111 25.5309 5.59865 25.6999 5.713L25.857 5.8123C26.0883 5.96276 26.3284 6.11322 26.5626 6.25465C9.63064 14.4125 0.872606 31.005 2.50918 51.8374C2.91536 56.9951 3.67138 62.3454 4.76539 67.7498C3.81666 67.6987 2.90053 67.9785 2.1534 68.5172C0.857782 69.447 -1.01894 71.9325 0.988233 78.1314L1.98144 81.2218C2.6337 83.2801 3.19108 85.0284 3.90857 87.189C5.92167 93.2374 9.96566 95.395 13.0787 95.395C13.1973 95.395 13.307 95.3859 13.4345 95.3739C18.5725 107.107 24.7986 116.188 33.0259 123.943C38.8814 129.468 44.6954 130.232 50.1091 130.232C55.5229 130.232 61.3398 129.468 67.1953 123.943C75.4226 116.185 81.6517 107.104 86.7897 95.3739C86.9083 95.3859 87.0269 95.395 87.1425 95.395C90.2555 95.395 94.3025 93.2374 96.3126 87.186C97.0924 84.8418 97.7179 82.8799 98.2427 81.2218L99.227 78.1404C101.234 71.9356 99.3604 69.45 98.0678 68.5232" fill="#2E2E2E"/>
<path fill-rule="evenodd" clip-rule="evenodd" d="M54.4763 110.663V110.212C54.6957 109.971 54.8143 109.664 54.8143 109.339C54.8143 109.014 54.6957 108.707 54.4763 108.467V108.012H45.7598V108.446C45.5256 108.692 45.3981 109.005 45.3981 109.339C45.3981 109.67 45.5256 109.986 45.7568 110.23V110.663H54.4763V110.663ZM62.2174 102.957C62.2174 102.229 61.6334 101.633 60.9159 101.633H39.3025C38.582 101.633 37.9979 102.229 37.9979 102.957C37.9979 103.688 38.582 104.281 39.3025 104.281H60.9159C61.6334 104.281 62.2174 103.688 62.2174 102.957ZM74.2041 60.2751C74.2041 59.5439 73.6201 58.951 72.9056 58.951H59.8723C59.1518 58.951 58.5678 59.5439 58.5678 60.2751C58.5678 61.0033 59.1518 61.5991 59.8723 61.5991H72.9056C73.6201 61.5991 74.2041 61.0033 74.2041 60.2751ZM66.3859 72.065C68.9979 72.065 71.1267 70.7199 71.1267 69.0648C71.1267 67.4098 68.9979 66.0617 66.383 66.0617C63.774 66.0617 61.6482 67.4068 61.6482 69.0648C61.6482 70.75 63.7265 72.065 66.3859 72.065V72.065ZM41.5854 60.2751C41.5854 59.5439 41.0013 58.951 40.2808 58.951H27.2535C26.536 58.951 25.949 59.5439 25.949 60.2751C25.949 61.0033 26.536 61.5991 27.2535 61.5991H40.2868C41.0043 61.5991 41.5883 61.0033 41.5883 60.2751H41.5854ZM33.7642 72.065C36.3792 72.065 38.5079 70.7199 38.5079 69.0648C38.5079 67.4098 36.3792 66.0617 33.7642 66.0617C31.1522 66.0617 29.0294 67.4068 29.0294 69.0648C29.0294 70.75 31.1048 72.065 33.7642 72.065Z" fill="#2E2E2E"/>
</svg>
