<svg width="32" height="32" viewBox="0 0 32 32" fill="none" xmlns="http://www.w3.org/2000/svg">
<rect width="32" height="32" fill="#ECF0F3"/>
<g filter="url(#filter0_dd_105_2)">
<rect x="5" y="5" width="22" height="22" rx="11" fill="#ECF0F3"/>
</g>
<path d="M15.389 20.014H16.166C16.166 20.3173 16.25 20.574 16.418 20.784C16.586 20.9987 16.789 21.1737 17.027 21.309C17.2697 21.4443 17.4983 21.547 17.713 21.617C17.9323 21.687 18.0887 21.7313 18.182 21.75L17.902 22.359C17.818 22.3403 17.678 22.3053 17.482 22.254C17.286 22.2027 17.069 22.1233 16.831 22.016C16.593 21.9133 16.3643 21.7733 16.145 21.596C15.9257 21.4233 15.7437 21.2063 15.599 20.945C15.459 20.6883 15.389 20.378 15.389 20.014ZM15.774 20.133C15.186 20.133 14.647 20.014 14.157 19.776C13.667 19.5333 13.24 19.1857 12.876 18.733C12.5167 18.2757 12.2367 17.718 12.036 17.06C11.84 16.402 11.742 15.6577 11.742 14.827C11.742 13.9917 11.84 13.2497 12.036 12.601C12.2367 11.9477 12.5167 11.3947 12.876 10.942C13.24 10.4893 13.667 10.1463 14.157 9.913C14.6517 9.67967 15.1907 9.563 15.774 9.563C16.362 9.563 16.901 9.67967 17.391 9.913C17.8857 10.1463 18.3127 10.4893 18.672 10.942C19.036 11.3947 19.316 11.9477 19.512 12.601C19.7127 13.2497 19.813 13.9917 19.813 14.827C19.813 15.6577 19.7127 16.402 19.512 17.06C19.316 17.718 19.036 18.2757 18.672 18.733C18.3127 19.1857 17.8857 19.5333 17.391 19.776C16.901 20.014 16.362 20.133 15.774 20.133ZM15.774 19.349C16.3947 19.349 16.9407 19.174 17.412 18.824C17.888 18.474 18.259 17.963 18.525 17.291C18.7957 16.619 18.931 15.7977 18.931 14.827C18.931 13.8517 18.7957 13.0327 18.525 12.37C18.2543 11.7027 17.881 11.1987 17.405 10.858C16.9337 10.5173 16.39 10.347 15.774 10.347C15.1627 10.347 14.619 10.5173 14.143 10.858C13.667 11.1987 13.2937 11.7027 13.023 12.37C12.7523 13.0327 12.617 13.8517 12.617 14.827C12.617 15.8023 12.7523 16.626 13.023 17.298C13.2937 17.97 13.667 18.481 14.143 18.831C14.619 19.1763 15.1627 19.349 15.774 19.349Z" fill="#2E2E2E"/>
<defs>
<filter id="filter0_dd_105_2" x="0" y="0" width="32" height="32" filterUnits="userSpaceOnUse" color-interpolation-filters="sRGB">
<feFlood flood-opacity="0" result="BackgroundImageFix"/>
<feColorMatrix in="SourceAlpha" type="matrix" values="0 0 0 0 0 0 0 0 0 0 0 0 0 0 0 0 0 0 127 0" result="hardAlpha"/>
<feOffset dx="2" dy="2"/>
<feGaussianBlur stdDeviation="1.5"/>
<feComposite in2="hardAlpha" operator="out"/>
<feColorMatrix type="matrix" values="0 0 0 0 0.819608 0 0 0 0 0.85098 0 0 0 0 0.901961 0 0 0 1 0"/>
<feBlend mode="normal" in2="BackgroundImageFix" result="effect1_dropShadow_105_2"/>
<feColorMatrix in="SourceAlpha" type="matrix" values="0 0 0 0 0 0 0 0 0 0 0 0 0 0 0 0 0 0 127 0" result="hardAlpha"/>
<feOffset dx="-2" dy="-2"/>
<feGaussianBlur stdDeviation="1.5"/>
<feComposite in2="hardAlpha" operator="out"/>
<feColorMatrix type="matrix" values="0 0 0 0 1 0 0 0 0 1 0 0 0 0 1 0 0 0 1 0"/>
<feBlend mode="normal" in2="effect1_dropShadow_105_2" result="effect2_dropShadow_105_2"/>
<feBlend mode="normal" in="SourceGraphic" in2="effect2_dropShadow_105_2" result="shape"/>
</filter>
</defs>
</svg>
